<mxfile host="app.diagrams.net" modified="2023-10-11T09:03:51.254Z" agent="Mozilla/5.0 (Windows NT 10.0; Win64; x64) AppleWebKit/537.36 (KHTML, like Gecko) Chrome/117.0.0.0 Safari/537.36 Edg/117.0.2045.60" version="22.0.4" etag="ILSOOS1s7PyP6rZEd4Oj" type="github">
  <diagram name="Page-1" id="20A89h3hWjBeoEcn7dj-">
    <mxGraphModel>
      <root>
        <mxCell id="0" />
        <mxCell id="1" parent="0" />
      </root>
    </mxGraphModel>
  </diagram>
</mxfile>
